<svg width="24" height="24" viewBox="0 0 24 24" fill="none" xmlns="http://www.w3.org/2000/svg">
<path d="M16.0008 8.4L7.10078 17.3C6.91745 17.4833 6.68411 17.575 6.40078 17.575C6.11745 17.575 5.88411 17.4833 5.70078 17.3C5.51745 17.1167 5.42578 16.8833 5.42578 16.6C5.42578 16.3167 5.51745 16.0833 5.70078 15.9L14.6008 7H7.00078C6.71745 7 6.48011 6.904 6.28878 6.712C6.09745 6.52 6.00145 6.28267 6.00078 6C6.00078 5.71667 6.09678 5.47933 6.28878 5.288C6.48078 5.09667 6.71811 5.00067 7.00078 5H17.0008C17.2841 5 17.5218 5.096 17.7138 5.288C17.9058 5.48 18.0014 5.71733 18.0008 6V16C18.0008 16.2833 17.9048 16.521 17.7128 16.713C17.5208 16.905 17.2834 17.0007 17.0008 17C16.7174 17 16.4801 16.904 16.2888 16.712C16.0974 16.52 16.0014 16.2827 16.0008 16V8.4Z" fill="#FF0000"/>
</svg>
