<svg width="156" height="20" viewBox="0 0 156 20" fill="none" xmlns="http://www.w3.org/2000/svg">
<path d="M9.51056 0.977417L11.7557 7.88725H19.0211L13.1433 12.1578L15.3884 19.0676L9.51056 14.7971L3.63271 19.0676L5.87785 12.1578L0 7.88725H7.26542L9.51056 0.977417Z" fill="#D9A900"/>
<path d="M43.532 0.977417L45.7772 7.88725H53.0426L47.1648 12.1578L49.4099 19.0676L43.532 14.7971L37.6542 19.0676L39.8993 12.1578L34.0215 7.88725H41.2869L43.532 0.977417Z" fill="#D9A900"/>
<path d="M77.5535 0.977417L79.7987 7.88725H87.0641L81.1862 12.1578L83.4314 19.0676L77.5535 14.7971L71.6757 19.0676L73.9208 12.1578L68.043 7.88725H75.3084L77.5535 0.977417Z" fill="#D9A900"/>
<path d="M111.573 0.977417L113.818 7.88725H121.084L115.206 12.1578L117.451 19.0676L111.573 14.7971L105.695 19.0676L107.94 12.1578L102.062 7.88725H109.328L111.573 0.977417Z" fill="#D9A900"/>
<path d="M145.595 0.977417L147.84 7.88725H155.105L149.227 12.1578L151.472 19.0676L145.595 14.7971L139.717 19.0676L141.962 12.1578L136.084 7.88725H143.349L145.595 0.977417Z" fill="#D9D9D9"/>
<path d="M145.595 0.932373V7.8422V14.752L139.717 19.0225L141.962 12.1127L136.084 7.8422H143.349L145.595 0.932373Z" fill="#D9A900"/>
</svg>
