<svg width="25" height="24" viewBox="0 0 25 24" fill="none" xmlns="http://www.w3.org/2000/svg">
<rect x="0.832031" width="24" height="24" rx="2" fill="#F2F4F8"/>
<path d="M12.082 3V5.25001H13.582V3H12.082ZM6.99902 5.10645L5.93848 6.167L7.5293 7.75783L8.58985 6.69728L6.99902 5.10645ZM18.665 5.10645L17.0742 6.69728L18.1347 7.75783L19.7256 6.167L18.665 5.10645ZM12.832 6.75001C9.94128 6.75001 7.58203 9.10927 7.58203 12C7.58203 14.0759 8.82412 15.8267 10.582 16.6758V18.75C10.582 19.5698 11.2622 20.2501 12.082 20.2501H13.582C14.4018 20.2501 15.082 19.5698 15.082 18.75V16.6758C16.84 15.8267 18.0821 14.0759 18.0821 12C18.0821 9.10927 15.7228 6.75001 12.832 6.75001ZM12.832 8.25001C14.9123 8.25001 16.582 9.91977 16.582 12C16.582 13.6383 15.5361 15.0171 14.0815 15.5318L13.582 15.7076V18.75H12.082V15.7076L11.5825 15.5318C10.128 15.0171 9.08204 13.6383 9.08204 12C9.08204 9.91977 10.7518 8.25001 12.832 8.25001ZM3.83203 11.25V12.75H6.08203V11.25H3.83203ZM19.582 11.25V12.75H21.832V11.25H19.582ZM7.5293 16.2423L5.93848 17.833L6.99902 18.8935L8.58985 17.3028L7.5293 16.2423ZM18.1347 16.2423L17.0742 17.3028L18.665 18.8935L19.7256 17.833L18.1347 16.2423Z" fill="black"/>
</svg>
