<svg width="18" height="18" viewBox="0 0 18 18" fill="none" xmlns="http://www.w3.org/2000/svg">
<path d="M2.64103 4.28205C3.54734 4.28205 4.28205 3.54734 4.28205 2.64103C4.28205 1.73471 3.54734 1 2.64103 1C1.73471 1 1 1.73471 1 2.64103C1 3.54734 1.73471 4.28205 2.64103 4.28205Z" stroke="white" stroke-width="2"/>
<path d="M1 6.74365H4.28205V17.0001H1V6.74365ZM7.5641 10.6411V17.0001H10.4359V11.2565C10.4359 10.2308 11.0513 9.41032 12.0769 9.41032C13.1026 9.41032 13.7179 10.436 13.7179 11.2565V17.0001H16.5897V10.6411C16.5897 9.41032 15.1538 6.74365 12.0769 6.74365C9 6.74365 7.5641 9.41032 7.5641 10.6411Z" stroke="white" stroke-width="2" stroke-linejoin="round"/>
</svg>
