<svg width="16" height="16" viewBox="0 0 16 16" fill="none" xmlns="http://www.w3.org/2000/svg">
<path d="M16 1.88235C15.4111 2.21176 14.7763 2.42824 14.1185 2.53176C14.7916 2.03294 15.3117 1.24235 15.5564 0.291765C14.9216 0.762353 14.218 1.09176 13.4761 1.28C12.8719 0.470588 12.0229 0 11.0593 0C9.26195 0 7.7935 1.80706 7.7935 4.03765C7.7935 4.35765 7.82409 4.66824 7.87763 4.96C5.15488 4.79059 2.7304 3.18118 1.11663 0.743529C0.833652 1.33647 0.67304 2.03294 0.67304 2.76706C0.67304 4.16941 1.24665 5.41176 2.13384 6.11765C1.59082 6.11765 1.08604 5.92941 0.642448 5.64706V5.67529C0.642448 7.63294 1.77438 9.27059 3.27342 9.63765C2.79214 9.79973 2.28688 9.82228 1.79732 9.70353C2.00505 10.5059 2.41188 11.2079 2.96062 11.711C3.50937 12.2141 4.17243 12.4929 4.8566 12.5082C3.69685 13.6381 2.25927 14.2488 0.780115 14.24C0.520077 14.24 0.260038 14.2212 0 14.1835C1.45316 15.3318 3.18164 16 5.03251 16C11.0593 16 14.3709 9.84471 14.3709 4.50824C14.3709 4.32941 14.3709 4.16 14.3633 3.98118C15.0057 3.41647 15.5564 2.70118 16 1.88235Z" fill="white"/>
</svg>
