<svg width="24" height="23" viewBox="0 0 24 23" fill="none" xmlns="http://www.w3.org/2000/svg">
<path d="M11 0V3.00002H13V0H11ZM4.22265 2.8086L2.8086 4.22266L4.92969 6.34377L6.34375 4.9297L4.22265 2.8086ZM19.7774 2.8086L17.6562 4.9297L19.0702 6.34377L21.1914 4.22266L19.7774 2.8086ZM12 5.00001C8.14566 5.00001 4.99999 8.14569 4.99999 12C4.99999 14.7678 6.65612 17.1022 9 18.2344V21C9 22.0931 9.90695 23.0001 11 23.0001H13C14.0931 23.0001 15 22.0931 15 21V18.2344C17.3439 17.1022 19 14.7678 19 12C19 8.14569 15.8544 5.00001 12 5.00001ZM12 7.00002C14.7737 7.00002 17 9.22637 17 12C17 14.1844 15.6054 16.0229 13.666 16.7091L13 16.9434V21H11V16.9434L10.334 16.7091C8.39466 16.0229 7 14.1844 7 12C7 9.22637 9.22633 7.00002 12 7.00002ZM0 11V13H3V11H0ZM21 11V13H24V11H21ZM4.92969 17.6563L2.8086 19.7774L4.22265 21.1914L6.34375 19.0704L4.92969 17.6563ZM19.0702 17.6563L17.6562 19.0704L19.7774 21.1914L21.1914 19.7774L19.0702 17.6563Z" fill="black"/>
</svg>
